<svg xmlns="http://www.w3.org/2000/svg" xmlns:xlink="http://www.w3.org/1999/xlink" width="500" zoomAndPan="magnify" viewBox="0 0 375 374.999991" height="500" preserveAspectRatio="xMidYMid meet" version="1.0"><defs><g/><clipPath id="dc33091b4e"><path d="M 156 45.160156 L 205 45.160156 L 205 98 L 156 98 Z M 156 45.160156 " clip-rule="nonzero"/></clipPath><clipPath id="cb5ab1b364"><path d="M 121.507812 77 L 243 77 L 243 230.410156 L 121.507812 230.410156 Z M 121.507812 77 " clip-rule="nonzero"/></clipPath><clipPath id="55bef5775b"><path d="M 132 77 L 253.507812 77 L 253.507812 230.410156 L 132 230.410156 Z M 132 77 " clip-rule="nonzero"/></clipPath><clipPath id="ced4fa4091"><path d="M 168 45.160156 L 217 45.160156 L 217 98 L 168 98 Z M 168 45.160156 " clip-rule="nonzero"/></clipPath></defs><g clip-path="url(#dc33091b4e)"><path stroke-linecap="round" transform="matrix(0.0804572, 0, 0, -0.0804735, 16.454674, 310.238651)" fill="none" stroke-linejoin="round" d="M 2306.184421 2673.584733 L 2306.184421 2995.701653 C 2306.184421 3141.615375 2188.012178 3259.909367 2042.117522 3259.909367 C 1896.222867 3259.909367 1778.002072 3141.615375 1778.002072 2995.701653 L 1778.002072 2673.584733 " stroke="#100f0f" stroke-width="68.362999" stroke-opacity="1" stroke-miterlimit="10"/></g><g clip-path="url(#cb5ab1b364)"><path fill="#f79326" d="M 242.554688 223.722656 C 242.554688 227.390625 239.546875 230.394531 235.871094 230.394531 L 128.210938 230.394531 C 124.539062 230.394531 121.53125 227.390625 121.53125 223.722656 L 134.050781 84.46875 C 134.050781 80.800781 137.058594 77.789062 140.730469 77.789062 L 223.351562 77.789062 C 227.027344 77.789062 230.027344 80.800781 230.027344 84.46875 L 242.554688 223.722656 " fill-opacity="1" fill-rule="nonzero"/></g><g clip-path="url(#55bef5775b)"><path fill="#f9af23" d="M 253.480469 223.722656 C 253.480469 227.390625 250.472656 230.394531 246.804688 230.394531 L 139.136719 230.394531 C 135.46875 230.394531 132.457031 227.390625 132.457031 223.722656 L 144.984375 84.46875 C 144.984375 80.800781 147.984375 77.789062 151.664062 77.789062 L 234.285156 77.789062 C 237.953125 77.789062 240.960938 80.800781 240.960938 84.46875 L 253.480469 223.722656 " fill-opacity="1" fill-rule="nonzero"/></g><path fill="#f79326" d="M 177.714844 95.085938 C 177.714844 98.617188 174.859375 101.472656 171.335938 101.472656 C 167.8125 101.472656 164.945312 98.617188 164.945312 95.085938 C 164.945312 91.558594 167.8125 88.703125 171.335938 88.703125 C 174.859375 88.703125 177.714844 91.558594 177.714844 95.085938 " fill-opacity="1" fill-rule="nonzero"/><path fill="#f79326" d="M 220.992188 95.085938 C 220.992188 98.617188 218.128906 101.472656 214.613281 101.472656 C 211.082031 101.472656 208.222656 98.617188 208.222656 95.085938 C 208.222656 91.558594 211.082031 88.703125 214.613281 88.703125 C 218.128906 88.703125 220.992188 91.558594 220.992188 95.085938 " fill-opacity="1" fill-rule="nonzero"/><g clip-path="url(#ced4fa4091)"><path stroke-linecap="round" transform="matrix(0.0804572, 0, 0, -0.0804735, 16.454674, 310.238651)" fill="none" stroke-linejoin="round" d="M 2458.002254 2673.584733 L 2458.002254 2995.701653 C 2458.002254 3141.615375 2339.78146 3259.909367 2193.886804 3259.909367 C 2047.992149 3259.909367 1929.819905 3141.615375 1929.819905 2995.701653 L 1929.819905 2673.584733 " stroke="#141515" stroke-width="68.362999" stroke-opacity="1" stroke-miterlimit="10"/></g><g fill="#000000" fill-opacity="1"><g transform="translate(85.747598, 290.818946)"><g><path d="M 34.859375 -9.109375 C 34.859375 -5.429688 35 -2.394531 35.28125 0 C 32.570312 -0.125 28 -0.1875 21.5625 -0.1875 C 12.851562 -0.1875 6.34375 -0.125 2.03125 0 L 2.03125 -1.203125 C 3.351562 -1.273438 4.320312 -1.429688 4.9375 -1.671875 C 5.5625 -1.910156 5.984375 -2.367188 6.203125 -3.046875 C 6.421875 -3.734375 6.53125 -4.832031 6.53125 -6.34375 L 6.53125 -36.0625 C 6.53125 -37.582031 6.421875 -38.679688 6.203125 -39.359375 C 5.984375 -40.035156 5.5625 -40.492188 4.9375 -40.734375 C 4.320312 -40.972656 3.351562 -41.132812 2.03125 -41.21875 L 2.03125 -42.40625 C 6.34375 -42.289062 12.851562 -42.234375 21.5625 -42.234375 C 27.4375 -42.234375 31.613281 -42.289062 34.09375 -42.40625 C 33.8125 -39.09375 33.671875 -36.140625 33.671875 -33.546875 C 33.671875 -31.785156 33.726562 -30.425781 33.84375 -29.46875 L 32.46875 -29.46875 C 31.875 -33.75 30.796875 -36.742188 29.234375 -38.453125 C 27.671875 -40.171875 25.472656 -41.03125 22.640625 -41.03125 L 20.1875 -41.03125 C 18.945312 -41.03125 18.046875 -40.929688 17.484375 -40.734375 C 16.929688 -40.535156 16.554688 -40.144531 16.359375 -39.5625 C 16.160156 -38.988281 16.0625 -38.0625 16.0625 -36.78125 L 16.0625 -21.921875 L 17.96875 -21.921875 C 20.082031 -21.921875 21.6875 -22.695312 22.78125 -24.25 C 23.882812 -25.8125 24.65625 -27.671875 25.09375 -29.828125 L 26.484375 -29.828125 C 26.359375 -28.148438 26.296875 -26.273438 26.296875 -24.203125 L 26.296875 -21.328125 C 26.296875 -19.285156 26.414062 -16.445312 26.65625 -12.8125 L 25.28125 -12.8125 C 24.4375 -18.09375 22 -20.734375 17.96875 -20.734375 L 16.0625 -20.734375 L 16.0625 -5.625 C 16.0625 -4.351562 16.160156 -3.425781 16.359375 -2.84375 C 16.554688 -2.269531 16.929688 -1.878906 17.484375 -1.671875 C 18.046875 -1.472656 18.945312 -1.375 20.1875 -1.375 L 23.125 -1.375 C 25.957031 -1.375 28.242188 -2.34375 29.984375 -4.28125 C 31.722656 -6.21875 32.953125 -9.503906 33.671875 -14.140625 L 35.046875 -14.140625 C 34.921875 -12.816406 34.859375 -11.140625 34.859375 -9.109375 Z M 34.859375 -9.109375 "/></g></g></g><g fill="#000000" fill-opacity="1"><g transform="translate(122.824777, 290.818946)"><g><path d="M 25.21875 -13.71875 L 3.59375 -13.71875 L 3.59375 -18.6875 L 25.21875 -18.6875 Z M 25.21875 -13.71875 "/></g></g></g><g fill="#000000" fill-opacity="1"><g transform="translate(150.737402, 290.818946)"><g><path d="M 17.015625 -43.1875 C 19.085938 -43.1875 20.742188 -42.988281 21.984375 -42.59375 C 23.222656 -42.195312 24.484375 -41.617188 25.765625 -40.859375 C 26.203125 -40.617188 26.585938 -40.414062 26.921875 -40.25 C 27.265625 -40.09375 27.554688 -40.015625 27.796875 -40.015625 C 28.148438 -40.015625 28.425781 -40.222656 28.625 -40.640625 C 28.832031 -41.066406 28.992188 -41.738281 29.109375 -42.65625 L 30.5 -42.65625 C 30.289062 -39.976562 30.1875 -35.425781 30.1875 -29 L 28.8125 -29 C 28.65625 -31.15625 28.164062 -33.207031 27.34375 -35.15625 C 26.53125 -37.113281 25.375 -38.703125 23.875 -39.921875 C 22.375 -41.140625 20.625 -41.75 18.625 -41.75 C 16.675781 -41.75 15.09375 -41.195312 13.875 -40.09375 C 12.65625 -39 12.046875 -37.515625 12.046875 -35.640625 C 12.046875 -34.242188 12.34375 -33.023438 12.9375 -31.984375 C 13.539062 -30.953125 14.378906 -30.003906 15.453125 -29.140625 C 16.535156 -28.285156 18.191406 -27.117188 20.421875 -25.640625 L 22.34375 -24.328125 C 24.695312 -22.765625 26.550781 -21.40625 27.90625 -20.25 C 29.269531 -19.09375 30.378906 -17.742188 31.234375 -16.203125 C 32.097656 -14.660156 32.53125 -12.875 32.53125 -10.84375 C 32.53125 -8.289062 31.867188 -6.144531 30.546875 -4.40625 C 29.234375 -2.664062 27.445312 -1.351562 25.1875 -0.46875 C 22.9375 0.40625 20.429688 0.84375 17.671875 0.84375 C 15.429688 0.84375 13.570312 0.640625 12.09375 0.234375 C 10.625 -0.160156 9.269531 -0.695312 8.03125 -1.375 C 7.144531 -1.9375 6.460938 -2.21875 5.984375 -2.21875 C 5.628906 -2.21875 5.351562 -2.003906 5.15625 -1.578125 C 4.957031 -1.160156 4.796875 -0.492188 4.671875 0.421875 L 3.296875 0.421875 C 3.453125 -2.097656 3.53125 -7.488281 3.53125 -15.75 L 4.90625 -15.75 C 5.1875 -11.28125 6.1875 -7.65625 7.90625 -4.875 C 9.625 -2.101562 12.257812 -0.71875 15.8125 -0.71875 C 17.96875 -0.71875 19.742188 -1.296875 21.140625 -2.453125 C 22.546875 -3.609375 23.25 -5.265625 23.25 -7.421875 C 23.25 -9.660156 22.53125 -11.578125 21.09375 -13.171875 C 19.65625 -14.773438 17.375 -16.578125 14.25 -18.578125 C 11.851562 -20.128906 9.9375 -21.484375 8.5 -22.640625 C 7.0625 -23.796875 5.882812 -25.160156 4.96875 -26.734375 C 4.050781 -28.316406 3.59375 -30.148438 3.59375 -32.234375 C 3.59375 -34.628906 4.203125 -36.65625 5.421875 -38.3125 C 6.640625 -39.96875 8.265625 -41.191406 10.296875 -41.984375 C 12.335938 -42.785156 14.578125 -43.1875 17.015625 -43.1875 Z M 17.015625 -43.1875 "/></g></g></g><g fill="#000000" fill-opacity="1"><g transform="translate(184.819628, 290.818946)"><g><path d="M 13.59375 -26.234375 C 15.394531 -29.953125 18.648438 -31.8125 23.359375 -31.8125 C 26.472656 -31.8125 28.671875 -31.03125 29.953125 -29.46875 C 30.628906 -28.707031 31.117188 -27.71875 31.421875 -26.5 C 31.722656 -25.289062 31.875 -23.6875 31.875 -21.6875 L 31.875 -5.578125 C 31.875 -3.929688 32.148438 -2.800781 32.703125 -2.1875 C 33.265625 -1.570312 34.265625 -1.265625 35.703125 -1.265625 L 35.703125 0 C 31.546875 -0.15625 28.910156 -0.234375 27.796875 -0.234375 C 26.441406 -0.234375 23.847656 -0.15625 20.015625 0 L 20.015625 -1.265625 C 21.210938 -1.265625 22.050781 -1.570312 22.53125 -2.1875 C 23.007812 -2.800781 23.25 -3.929688 23.25 -5.578125 L 23.25 -24.203125 C 23.25 -25.835938 22.976562 -27.070312 22.4375 -27.90625 C 21.894531 -28.75 20.925781 -29.171875 19.53125 -29.171875 C 17.851562 -29.171875 16.441406 -28.519531 15.296875 -27.21875 C 14.160156 -25.925781 13.59375 -24.28125 13.59375 -22.28125 L 13.59375 -5.578125 C 13.59375 -3.929688 13.832031 -2.800781 14.3125 -2.1875 C 14.789062 -1.570312 15.628906 -1.265625 16.828125 -1.265625 L 16.828125 0 C 12.992188 -0.15625 10.519531 -0.234375 9.40625 -0.234375 C 8.050781 -0.234375 5.296875 -0.15625 1.140625 0 L 1.140625 -1.265625 C 2.535156 -1.265625 3.519531 -1.570312 4.09375 -2.1875 C 4.675781 -2.800781 4.96875 -3.929688 4.96875 -5.578125 L 4.96875 -39.65625 C 4.96875 -41.488281 4.675781 -42.820312 4.09375 -43.65625 C 3.519531 -44.5 2.535156 -44.921875 1.140625 -44.921875 L 1.140625 -46.1875 C 2.421875 -46.070312 3.660156 -46.015625 4.859375 -46.015625 C 8.328125 -46.015625 11.238281 -46.289062 13.59375 -46.84375 Z M 13.59375 -26.234375 "/></g></g></g><g fill="#000000" fill-opacity="1"><g transform="translate(220.339428, 290.818946)"><g><path d="M 16.890625 -31.8125 C 21.484375 -31.8125 25.078125 -30.503906 27.671875 -27.890625 C 30.273438 -25.273438 31.578125 -21.128906 31.578125 -15.453125 C 31.578125 -9.785156 30.273438 -5.648438 27.671875 -3.046875 C 25.078125 -0.453125 21.484375 0.84375 16.890625 0.84375 C 12.335938 0.84375 8.753906 -0.453125 6.140625 -3.046875 C 3.523438 -5.648438 2.21875 -9.785156 2.21875 -15.453125 C 2.21875 -21.128906 3.523438 -25.273438 6.140625 -27.890625 C 8.753906 -30.503906 12.335938 -31.8125 16.890625 -31.8125 Z M 16.890625 -30.609375 C 15.171875 -30.609375 13.800781 -29.359375 12.78125 -26.859375 C 11.769531 -24.367188 11.265625 -20.566406 11.265625 -15.453125 C 11.265625 -10.335938 11.769531 -6.539062 12.78125 -4.0625 C 13.800781 -1.59375 15.171875 -0.359375 16.890625 -0.359375 C 18.648438 -0.359375 20.03125 -1.585938 21.03125 -4.046875 C 22.03125 -6.503906 22.53125 -10.304688 22.53125 -15.453125 C 22.53125 -20.609375 22.019531 -24.421875 21 -26.890625 C 19.976562 -29.367188 18.609375 -30.609375 16.890625 -30.609375 Z M 16.890625 -30.609375 "/></g></g></g><g fill="#000000" fill-opacity="1"><g transform="translate(253.283575, 290.818946)"><g><path d="M 22.9375 -31.8125 C 25.019531 -31.8125 26.867188 -31.25 28.484375 -30.125 C 30.097656 -29.007812 31.363281 -27.332031 32.28125 -25.09375 C 33.207031 -22.863281 33.671875 -20.128906 33.671875 -16.890625 C 33.671875 -11.179688 32.421875 -6.796875 29.921875 -3.734375 C 27.421875 -0.679688 24.035156 0.84375 19.765625 0.84375 C 18.566406 0.84375 17.4375 0.679688 16.375 0.359375 C 15.320312 0.0351562 14.414062 -0.441406 13.65625 -1.078125 L 13.65625 4.90625 C 13.65625 6.664062 14.09375 7.882812 14.96875 8.5625 C 15.851562 9.238281 17.210938 9.578125 19.046875 9.578125 L 19.046875 10.84375 L 17.4375 10.78125 C 13 10.664062 10.179688 10.609375 8.984375 10.609375 C 7.785156 10.609375 5.269531 10.6875 1.4375 10.84375 L 1.4375 9.578125 C 2.757812 9.578125 3.6875 9.285156 4.21875 8.703125 C 4.757812 8.128906 5.03125 7.066406 5.03125 5.515625 L 5.03125 -24.4375 C 5.03125 -26.28125 4.738281 -27.617188 4.15625 -28.453125 C 3.582031 -29.296875 2.597656 -29.71875 1.203125 -29.71875 L 1.203125 -30.96875 C 2.472656 -30.851562 3.707031 -30.796875 4.90625 -30.796875 C 8.382812 -30.796875 11.300781 -31.070312 13.65625 -31.625 L 13.65625 -26.125 C 14.5 -27.957031 15.71875 -29.363281 17.3125 -30.34375 C 18.90625 -31.320312 20.78125 -31.8125 22.9375 -31.8125 Z M 17.4375 -0.78125 C 19.988281 -0.78125 21.820312 -2.046875 22.9375 -4.578125 C 24.0625 -7.117188 24.625 -10.828125 24.625 -15.703125 C 24.625 -20.566406 24.171875 -24.035156 23.265625 -26.109375 C 22.367188 -28.191406 21.082031 -29.234375 19.40625 -29.234375 C 18.050781 -29.234375 16.84375 -28.773438 15.78125 -27.859375 C 14.726562 -26.941406 14.019531 -25.660156 13.65625 -24.015625 L 13.65625 -2.390625 C 14.613281 -1.316406 15.875 -0.78125 17.4375 -0.78125 Z M 17.4375 -0.78125 "/></g></g></g><g fill="#000000" fill-opacity="1"><g transform="translate(31.497085, 324.033208)"><g><path d="M 14.296875 0 L 11.90625 0 L 9.953125 -5.828125 L 4.359375 -5.828125 L 2.375 0 L 0.421875 0 L 6.3125 -16.953125 L 8.4375 -16.953125 Z M 9.40625 -7.40625 L 7.171875 -14.125 L 4.890625 -7.40625 Z M 9.40625 -7.40625 "/></g></g></g><g fill="#000000" fill-opacity="1"><g transform="translate(47.24348, 324.033208)"><g/></g></g><g fill="#000000" fill-opacity="1"><g transform="translate(53.649428, 324.033208)"><g><path d="M 10.8125 0 L 8.90625 0 L 8.90625 -7.109375 C 8.90625 -7.460938 8.894531 -7.753906 8.875 -7.984375 C 8.863281 -8.222656 8.820312 -8.488281 8.75 -8.78125 C 8.675781 -9.070312 8.570312 -9.304688 8.4375 -9.484375 C 8.3125 -9.671875 8.117188 -9.828125 7.859375 -9.953125 C 7.609375 -10.078125 7.300781 -10.140625 6.9375 -10.140625 C 5.914062 -10.140625 4.863281 -9.625 3.78125 -8.59375 L 3.78125 0 L 1.859375 0 L 1.859375 -8.203125 C 1.859375 -9.691406 1.601562 -10.785156 1.09375 -11.484375 L 3.21875 -11.765625 C 3.445312 -11.171875 3.59375 -10.617188 3.65625 -10.109375 C 4.820312 -11.273438 6.023438 -11.859375 7.265625 -11.859375 C 8.492188 -11.859375 9.390625 -11.488281 9.953125 -10.75 C 10.523438 -10.007812 10.8125 -9.003906 10.8125 -7.734375 Z M 10.8125 0 "/></g></g></g><g fill="#000000" fill-opacity="1"><g transform="translate(67.439221, 324.033208)"><g><path d="M 9.453125 -2.40625 L 10.328125 -1 C 9.253906 -0.132812 7.945312 0.296875 6.40625 0.296875 C 4.726562 0.296875 3.410156 -0.265625 2.453125 -1.390625 C 1.503906 -2.515625 1.03125 -3.9375 1.03125 -5.65625 C 1.03125 -6.71875 1.203125 -7.707031 1.546875 -8.625 C 1.898438 -9.539062 2.46875 -10.304688 3.25 -10.921875 C 4.03125 -11.546875 4.96875 -11.859375 6.0625 -11.859375 C 7.40625 -11.859375 8.488281 -11.457031 9.3125 -10.65625 C 10.132812 -9.851562 10.546875 -8.785156 10.546875 -7.453125 C 10.546875 -6.460938 10.148438 -5.96875 9.359375 -5.96875 L 3.078125 -5.96875 L 3.078125 -5.734375 C 3.078125 -4.609375 3.375 -3.59375 3.96875 -2.6875 C 4.570312 -1.78125 5.398438 -1.328125 6.453125 -1.328125 C 6.960938 -1.328125 7.5 -1.421875 8.0625 -1.609375 C 8.625 -1.804688 9.085938 -2.070312 9.453125 -2.40625 Z M 3.21875 -7.40625 L 8.078125 -7.40625 C 8.253906 -7.40625 8.363281 -7.441406 8.40625 -7.515625 C 8.457031 -7.585938 8.484375 -7.710938 8.484375 -7.890625 C 8.484375 -8.597656 8.28125 -9.191406 7.875 -9.671875 C 7.46875 -10.148438 6.925781 -10.390625 6.25 -10.390625 C 5.5 -10.390625 4.835938 -10.085938 4.265625 -9.484375 C 3.703125 -8.878906 3.351562 -8.1875 3.21875 -7.40625 Z M 3.21875 -7.40625 "/></g></g></g><g fill="#000000" fill-opacity="1"><g transform="translate(79.9945, 324.033208)"><g><path d="M 11.390625 0.140625 L 10 0.140625 L 7.640625 -7.875 L 5.15625 0.140625 L 3.734375 0.140625 L 0.296875 -11.578125 L 2.3125 -11.578125 L 4.65625 -3.65625 L 7.125 -11.578125 L 8.5 -11.578125 L 10.875 -3.65625 L 13.328125 -11.578125 L 15.046875 -11.578125 Z M 11.390625 0.140625 "/></g></g></g><g fill="#000000" fill-opacity="1"><g transform="translate(96.369801, 324.033208)"><g/></g></g><g fill="#000000" fill-opacity="1"><g transform="translate(102.775748, 324.033208)"><g><path d="M 11.203125 -1.703125 L 11.609375 -0.484375 C 11.492188 -0.441406 11.316406 -0.367188 11.078125 -0.265625 C 10.835938 -0.160156 10.644531 -0.0820312 10.5 -0.03125 C 10.351562 0.0195312 10.171875 0.0703125 9.953125 0.125 C 9.734375 0.175781 9.535156 0.203125 9.359375 0.203125 C 8.910156 0.203125 8.539062 0.0546875 8.25 -0.234375 C 7.96875 -0.523438 7.789062 -0.90625 7.71875 -1.375 C 6.675781 -0.289062 5.507812 0.25 4.21875 0.25 C 3.28125 0.25 2.515625 -0.0195312 1.921875 -0.5625 C 1.328125 -1.113281 1.03125 -1.859375 1.03125 -2.796875 C 1.03125 -5.421875 3.242188 -6.75 7.671875 -6.78125 L 7.671875 -8.015625 C 7.671875 -9.566406 7.023438 -10.34375 5.734375 -10.34375 C 5.128906 -10.34375 4.515625 -10.21875 3.890625 -9.96875 C 3.265625 -9.71875 2.769531 -9.382812 2.40625 -8.96875 L 1.4375 -10.34375 C 2.695312 -11.351562 4.179688 -11.859375 5.890625 -11.859375 C 7.109375 -11.859375 8.03125 -11.523438 8.65625 -10.859375 C 9.28125 -10.203125 9.59375 -9.257812 9.59375 -8.03125 L 9.59375 -2.265625 C 9.59375 -1.953125 9.628906 -1.722656 9.703125 -1.578125 C 9.773438 -1.441406 9.910156 -1.375 10.109375 -1.375 C 10.296875 -1.375 10.660156 -1.484375 11.203125 -1.703125 Z M 7.671875 -4.515625 L 7.671875 -5.265625 C 7.085938 -5.265625 6.585938 -5.242188 6.171875 -5.203125 C 5.765625 -5.171875 5.285156 -5.082031 4.734375 -4.9375 C 4.179688 -4.800781 3.753906 -4.554688 3.453125 -4.203125 C 3.148438 -3.859375 3 -3.410156 3 -2.859375 C 3 -2.367188 3.164062 -2 3.5 -1.75 C 3.832031 -1.5 4.28125 -1.375 4.84375 -1.375 C 5.632812 -1.375 6.300781 -1.695312 6.84375 -2.34375 C 7.394531 -2.988281 7.671875 -3.710938 7.671875 -4.515625 Z M 7.671875 -4.515625 "/></g></g></g><g fill="#000000" fill-opacity="1"><g transform="translate(115.331024, 324.033208)"><g><path d="M 4.125 5.03125 L 1.890625 5.03125 L 1.890625 -8.203125 C 1.890625 -9.628906 1.648438 -10.722656 1.171875 -11.484375 L 3.21875 -11.734375 C 3.4375 -11.253906 3.582031 -10.726562 3.65625 -10.15625 C 4.539062 -11.269531 5.675781 -11.828125 7.0625 -11.828125 C 8.59375 -11.828125 9.773438 -11.226562 10.609375 -10.03125 C 11.453125 -8.84375 11.875 -7.445312 11.875 -5.84375 C 11.875 -4.132812 11.421875 -2.679688 10.515625 -1.484375 C 9.617188 -0.296875 8.34375 0.296875 6.6875 0.296875 C 5.488281 0.296875 4.523438 -0.0390625 3.796875 -0.71875 L 3.796875 3.65625 Z M 3.796875 -8.59375 L 3.796875 -4.6875 C 3.796875 -3.6875 4.023438 -2.867188 4.484375 -2.234375 C 4.953125 -1.597656 5.671875 -1.28125 6.640625 -1.28125 C 7.234375 -1.28125 7.742188 -1.410156 8.171875 -1.671875 C 8.597656 -1.941406 8.925781 -2.296875 9.15625 -2.734375 C 9.382812 -3.179688 9.550781 -3.648438 9.65625 -4.140625 C 9.769531 -4.640625 9.828125 -5.160156 9.828125 -5.703125 C 9.828125 -6.921875 9.554688 -7.960938 9.015625 -8.828125 C 8.472656 -9.703125 7.625 -10.140625 6.46875 -10.140625 C 5.5625 -10.140625 4.671875 -9.625 3.796875 -8.59375 Z M 3.796875 -8.59375 "/></g></g></g><g fill="#000000" fill-opacity="1"><g transform="translate(129.330461, 324.033208)"><g><path d="M 4.125 5.03125 L 1.890625 5.03125 L 1.890625 -8.203125 C 1.890625 -9.628906 1.648438 -10.722656 1.171875 -11.484375 L 3.21875 -11.734375 C 3.4375 -11.253906 3.582031 -10.726562 3.65625 -10.15625 C 4.539062 -11.269531 5.675781 -11.828125 7.0625 -11.828125 C 8.59375 -11.828125 9.773438 -11.226562 10.609375 -10.03125 C 11.453125 -8.84375 11.875 -7.445312 11.875 -5.84375 C 11.875 -4.132812 11.421875 -2.679688 10.515625 -1.484375 C 9.617188 -0.296875 8.34375 0.296875 6.6875 0.296875 C 5.488281 0.296875 4.523438 -0.0390625 3.796875 -0.71875 L 3.796875 3.65625 Z M 3.796875 -8.59375 L 3.796875 -4.6875 C 3.796875 -3.6875 4.023438 -2.867188 4.484375 -2.234375 C 4.953125 -1.597656 5.671875 -1.28125 6.640625 -1.28125 C 7.234375 -1.28125 7.742188 -1.410156 8.171875 -1.671875 C 8.597656 -1.941406 8.925781 -2.296875 9.15625 -2.734375 C 9.382812 -3.179688 9.550781 -3.648438 9.65625 -4.140625 C 9.769531 -4.640625 9.828125 -5.160156 9.828125 -5.703125 C 9.828125 -6.921875 9.554688 -7.960938 9.015625 -8.828125 C 8.472656 -9.703125 7.625 -10.140625 6.46875 -10.140625 C 5.5625 -10.140625 4.671875 -9.625 3.796875 -8.59375 Z M 3.796875 -8.59375 "/></g></g></g><g fill="#000000" fill-opacity="1"><g transform="translate(143.329897, 324.033208)"><g><path d="M 3.828125 0 L 1.890625 0 L 1.890625 -8.390625 C 1.890625 -9.753906 1.640625 -10.800781 1.140625 -11.53125 L 3.234375 -11.78125 C 3.515625 -11.101562 3.695312 -10.382812 3.78125 -9.625 C 4.195312 -10.269531 4.742188 -10.789062 5.421875 -11.1875 C 6.109375 -11.582031 6.828125 -11.78125 7.578125 -11.78125 L 7.109375 -9.734375 C 5.847656 -9.734375 4.753906 -9.050781 3.828125 -7.6875 Z M 3.828125 0 "/></g></g></g><g fill="#000000" fill-opacity="1"><g transform="translate(152.507699, 324.033208)"><g><path d="M 6.25 0.296875 C 4.613281 0.296875 3.332031 -0.296875 2.40625 -1.484375 C 1.488281 -2.671875 1.03125 -4.101562 1.03125 -5.78125 C 1.03125 -7.4375 1.492188 -8.863281 2.421875 -10.0625 C 3.359375 -11.257812 4.632812 -11.859375 6.25 -11.859375 C 7.894531 -11.859375 9.175781 -11.265625 10.09375 -10.078125 C 11.019531 -8.898438 11.484375 -7.460938 11.484375 -5.765625 C 11.484375 -4.078125 11.019531 -2.644531 10.09375 -1.46875 C 9.175781 -0.289062 7.894531 0.296875 6.25 0.296875 Z M 6.25 -1.171875 C 7.007812 -1.171875 7.640625 -1.425781 8.140625 -1.9375 C 8.648438 -2.445312 8.992188 -3.03125 9.171875 -3.6875 C 9.347656 -4.351562 9.4375 -5.050781 9.4375 -5.78125 C 9.4375 -6.507812 9.34375 -7.203125 9.15625 -7.859375 C 8.96875 -8.523438 8.617188 -9.113281 8.109375 -9.625 C 7.609375 -10.132812 6.988281 -10.390625 6.25 -10.390625 C 5.5 -10.390625 4.867188 -10.132812 4.359375 -9.625 C 3.859375 -9.113281 3.519531 -8.523438 3.34375 -7.859375 C 3.164062 -7.203125 3.078125 -6.507812 3.078125 -5.78125 C 3.078125 -5.09375 3.175781 -4.414062 3.375 -3.75 C 3.582031 -3.082031 3.9375 -2.484375 4.4375 -1.953125 C 4.9375 -1.429688 5.539062 -1.171875 6.25 -1.171875 Z M 6.25 -1.171875 "/></g></g></g><g fill="#000000" fill-opacity="1"><g transform="translate(166.041281, 324.033208)"><g><path d="M 11.203125 -1.703125 L 11.609375 -0.484375 C 11.492188 -0.441406 11.316406 -0.367188 11.078125 -0.265625 C 10.835938 -0.160156 10.644531 -0.0820312 10.5 -0.03125 C 10.351562 0.0195312 10.171875 0.0703125 9.953125 0.125 C 9.734375 0.175781 9.535156 0.203125 9.359375 0.203125 C 8.910156 0.203125 8.539062 0.0546875 8.25 -0.234375 C 7.96875 -0.523438 7.789062 -0.90625 7.71875 -1.375 C 6.675781 -0.289062 5.507812 0.25 4.21875 0.25 C 3.28125 0.25 2.515625 -0.0195312 1.921875 -0.5625 C 1.328125 -1.113281 1.03125 -1.859375 1.03125 -2.796875 C 1.03125 -5.421875 3.242188 -6.75 7.671875 -6.78125 L 7.671875 -8.015625 C 7.671875 -9.566406 7.023438 -10.34375 5.734375 -10.34375 C 5.128906 -10.34375 4.515625 -10.21875 3.890625 -9.96875 C 3.265625 -9.71875 2.769531 -9.382812 2.40625 -8.96875 L 1.4375 -10.34375 C 2.695312 -11.351562 4.179688 -11.859375 5.890625 -11.859375 C 7.109375 -11.859375 8.03125 -11.523438 8.65625 -10.859375 C 9.28125 -10.203125 9.59375 -9.257812 9.59375 -8.03125 L 9.59375 -2.265625 C 9.59375 -1.953125 9.628906 -1.722656 9.703125 -1.578125 C 9.773438 -1.441406 9.910156 -1.375 10.109375 -1.375 C 10.296875 -1.375 10.660156 -1.484375 11.203125 -1.703125 Z M 7.671875 -4.515625 L 7.671875 -5.265625 C 7.085938 -5.265625 6.585938 -5.242188 6.171875 -5.203125 C 5.765625 -5.171875 5.285156 -5.082031 4.734375 -4.9375 C 4.179688 -4.800781 3.753906 -4.554688 3.453125 -4.203125 C 3.148438 -3.859375 3 -3.410156 3 -2.859375 C 3 -2.367188 3.164062 -2 3.5 -1.75 C 3.832031 -1.5 4.28125 -1.375 4.84375 -1.375 C 5.632812 -1.375 6.300781 -1.695312 6.84375 -2.34375 C 7.394531 -2.988281 7.671875 -3.710938 7.671875 -4.515625 Z M 7.671875 -4.515625 "/></g></g></g><g fill="#000000" fill-opacity="1"><g transform="translate(178.596562, 324.033208)"><g><path d="M 9.203125 -2.328125 L 10.09375 -0.859375 C 9.363281 -0.421875 8.738281 -0.117188 8.21875 0.046875 C 7.695312 0.210938 7.046875 0.296875 6.265625 0.296875 C 4.710938 0.296875 3.453125 -0.316406 2.484375 -1.546875 C 1.515625 -2.785156 1.03125 -4.195312 1.03125 -5.78125 C 1.03125 -7.53125 1.519531 -8.976562 2.5 -10.125 C 3.488281 -11.28125 4.84375 -11.859375 6.5625 -11.859375 C 7.757812 -11.859375 8.878906 -11.460938 9.921875 -10.671875 L 8.875 -9.3125 C 8.425781 -9.707031 8.019531 -9.976562 7.65625 -10.125 C 7.289062 -10.269531 6.828125 -10.34375 6.265625 -10.34375 C 5.253906 -10.34375 4.472656 -9.882812 3.921875 -8.96875 C 3.367188 -8.050781 3.09375 -7.054688 3.09375 -5.984375 C 3.09375 -5.273438 3.195312 -4.582031 3.40625 -3.90625 C 3.625 -3.226562 3.988281 -2.625 4.5 -2.09375 C 5.019531 -1.5625 5.648438 -1.296875 6.390625 -1.296875 C 6.941406 -1.296875 7.410156 -1.375 7.796875 -1.53125 C 8.191406 -1.6875 8.660156 -1.953125 9.203125 -2.328125 Z M 9.203125 -2.328125 "/></g></g></g><g fill="#000000" fill-opacity="1"><g transform="translate(190.126951, 324.033208)"><g><path d="M 10.859375 0 L 8.953125 0 L 8.953125 -7.125 C 8.953125 -7.570312 8.9375 -7.9375 8.90625 -8.21875 C 8.875 -8.5 8.796875 -8.804688 8.671875 -9.140625 C 8.554688 -9.472656 8.359375 -9.722656 8.078125 -9.890625 C 7.804688 -10.066406 7.453125 -10.15625 7.015625 -10.15625 C 6.109375 -10.15625 5.046875 -9.644531 3.828125 -8.625 L 3.828125 0 L 1.90625 0 L 1.90625 -16.375 C 1.90625 -16.394531 1.878906 -16.507812 1.828125 -16.71875 C 1.785156 -16.925781 1.738281 -17.140625 1.6875 -17.359375 C 1.632812 -17.585938 1.609375 -17.71875 1.609375 -17.75 L 3.828125 -17.75 L 3.828125 -10.203125 C 5.003906 -11.316406 6.175781 -11.875 7.34375 -11.875 C 9.6875 -11.875 10.859375 -10.503906 10.859375 -7.765625 Z M 10.859375 0 "/></g></g></g><g fill="#000000" fill-opacity="1"><g transform="translate(203.916747, 324.033208)"><g/></g></g><g fill="#000000" fill-opacity="1"><g transform="translate(210.322697, 324.033208)"><g><path d="M 6.828125 -1.46875 L 7.15625 -0.15625 C 6.238281 0.113281 5.46875 0.25 4.84375 0.25 C 3.894531 0.25 3.210938 0 2.796875 -0.5 C 2.390625 -1.007812 2.1875 -1.757812 2.1875 -2.75 L 2.1875 -10.109375 L 0.46875 -10.109375 L 0.46875 -11.28125 C 1.820312 -11.3125 2.722656 -12.515625 3.171875 -14.890625 L 4.640625 -14.890625 C 4.296875 -13.492188 4.125 -12.390625 4.125 -11.578125 L 7.15625 -11.578125 L 6.734375 -10.109375 L 4.125 -10.109375 L 4.125 -2.703125 C 4.125 -2.203125 4.210938 -1.832031 4.390625 -1.59375 C 4.566406 -1.351562 4.890625 -1.234375 5.359375 -1.234375 C 5.710938 -1.234375 6.203125 -1.3125 6.828125 -1.46875 Z M 6.828125 -1.46875 "/></g></g></g><g fill="#000000" fill-opacity="1"><g transform="translate(218.988054, 324.033208)"><g><path d="M 6.25 0.296875 C 4.613281 0.296875 3.332031 -0.296875 2.40625 -1.484375 C 1.488281 -2.671875 1.03125 -4.101562 1.03125 -5.78125 C 1.03125 -7.4375 1.492188 -8.863281 2.421875 -10.0625 C 3.359375 -11.257812 4.632812 -11.859375 6.25 -11.859375 C 7.894531 -11.859375 9.175781 -11.265625 10.09375 -10.078125 C 11.019531 -8.898438 11.484375 -7.460938 11.484375 -5.765625 C 11.484375 -4.078125 11.019531 -2.644531 10.09375 -1.46875 C 9.175781 -0.289062 7.894531 0.296875 6.25 0.296875 Z M 6.25 -1.171875 C 7.007812 -1.171875 7.640625 -1.425781 8.140625 -1.9375 C 8.648438 -2.445312 8.992188 -3.03125 9.171875 -3.6875 C 9.347656 -4.351562 9.4375 -5.050781 9.4375 -5.78125 C 9.4375 -6.507812 9.34375 -7.203125 9.15625 -7.859375 C 8.96875 -8.523438 8.617188 -9.113281 8.109375 -9.625 C 7.609375 -10.132812 6.988281 -10.390625 6.25 -10.390625 C 5.5 -10.390625 4.867188 -10.132812 4.359375 -9.625 C 3.859375 -9.113281 3.519531 -8.523438 3.34375 -7.859375 C 3.164062 -7.203125 3.078125 -6.507812 3.078125 -5.78125 C 3.078125 -5.09375 3.175781 -4.414062 3.375 -3.75 C 3.582031 -3.082031 3.9375 -2.484375 4.4375 -1.953125 C 4.9375 -1.429688 5.539062 -1.171875 6.25 -1.171875 Z M 6.25 -1.171875 "/></g></g></g><g fill="#000000" fill-opacity="1"><g transform="translate(232.521636, 324.033208)"><g/></g></g><g fill="#000000" fill-opacity="1"><g transform="translate(238.927586, 324.033208)"><g><path d="M 1.1875 -0.671875 L 2 -2.09375 C 2.90625 -1.476562 3.726562 -1.171875 4.46875 -1.171875 C 5.101562 -1.171875 5.65625 -1.289062 6.125 -1.53125 C 6.59375 -1.78125 6.828125 -2.203125 6.828125 -2.796875 C 6.828125 -3.265625 6.640625 -3.671875 6.265625 -4.015625 C 5.890625 -4.367188 5.429688 -4.664062 4.890625 -4.90625 C 4.359375 -5.15625 3.828125 -5.414062 3.296875 -5.6875 C 2.773438 -5.96875 2.328125 -6.335938 1.953125 -6.796875 C 1.578125 -7.265625 1.390625 -7.828125 1.390625 -8.484375 C 1.390625 -9.566406 1.785156 -10.398438 2.578125 -10.984375 C 3.378906 -11.566406 4.34375 -11.859375 5.46875 -11.859375 C 6.65625 -11.859375 7.691406 -11.585938 8.578125 -11.046875 L 7.890625 -9.546875 C 7.160156 -10.109375 6.425781 -10.390625 5.6875 -10.390625 C 5.082031 -10.390625 4.546875 -10.265625 4.078125 -10.015625 C 3.609375 -9.765625 3.375 -9.363281 3.375 -8.8125 C 3.375 -8.34375 3.5625 -7.929688 3.9375 -7.578125 C 4.3125 -7.234375 4.765625 -6.941406 5.296875 -6.703125 C 5.835938 -6.460938 6.375 -6.203125 6.90625 -5.921875 C 7.445312 -5.648438 7.898438 -5.273438 8.265625 -4.796875 C 8.640625 -4.316406 8.828125 -3.742188 8.828125 -3.078125 C 8.828125 -1.921875 8.429688 -1.066406 7.640625 -0.515625 C 6.859375 0.0234375 5.863281 0.296875 4.65625 0.296875 C 3.613281 0.296875 2.457031 -0.0234375 1.1875 -0.671875 Z M 1.1875 -0.671875 "/></g></g></g><g fill="#000000" fill-opacity="1"><g transform="translate(249.992121, 324.033208)"><g><path d="M 10.859375 0 L 8.953125 0 L 8.953125 -7.125 C 8.953125 -7.570312 8.9375 -7.9375 8.90625 -8.21875 C 8.875 -8.5 8.796875 -8.804688 8.671875 -9.140625 C 8.554688 -9.472656 8.359375 -9.722656 8.078125 -9.890625 C 7.804688 -10.066406 7.453125 -10.15625 7.015625 -10.15625 C 6.109375 -10.15625 5.046875 -9.644531 3.828125 -8.625 L 3.828125 0 L 1.90625 0 L 1.90625 -16.375 C 1.90625 -16.394531 1.878906 -16.507812 1.828125 -16.71875 C 1.785156 -16.925781 1.738281 -17.140625 1.6875 -17.359375 C 1.632812 -17.585938 1.609375 -17.71875 1.609375 -17.75 L 3.828125 -17.75 L 3.828125 -10.203125 C 5.003906 -11.316406 6.175781 -11.875 7.34375 -11.875 C 9.6875 -11.875 10.859375 -10.503906 10.859375 -7.765625 Z M 10.859375 0 "/></g></g></g><g fill="#000000" fill-opacity="1"><g transform="translate(263.781917, 324.033208)"><g><path d="M 6.25 0.296875 C 4.613281 0.296875 3.332031 -0.296875 2.40625 -1.484375 C 1.488281 -2.671875 1.03125 -4.101562 1.03125 -5.78125 C 1.03125 -7.4375 1.492188 -8.863281 2.421875 -10.0625 C 3.359375 -11.257812 4.632812 -11.859375 6.25 -11.859375 C 7.894531 -11.859375 9.175781 -11.265625 10.09375 -10.078125 C 11.019531 -8.898438 11.484375 -7.460938 11.484375 -5.765625 C 11.484375 -4.078125 11.019531 -2.644531 10.09375 -1.46875 C 9.175781 -0.289062 7.894531 0.296875 6.25 0.296875 Z M 6.25 -1.171875 C 7.007812 -1.171875 7.640625 -1.425781 8.140625 -1.9375 C 8.648438 -2.445312 8.992188 -3.03125 9.171875 -3.6875 C 9.347656 -4.351562 9.4375 -5.050781 9.4375 -5.78125 C 9.4375 -6.507812 9.34375 -7.203125 9.15625 -7.859375 C 8.96875 -8.523438 8.617188 -9.113281 8.109375 -9.625 C 7.609375 -10.132812 6.988281 -10.390625 6.25 -10.390625 C 5.5 -10.390625 4.867188 -10.132812 4.359375 -9.625 C 3.859375 -9.113281 3.519531 -8.523438 3.34375 -7.859375 C 3.164062 -7.203125 3.078125 -6.507812 3.078125 -5.78125 C 3.078125 -5.09375 3.175781 -4.414062 3.375 -3.75 C 3.582031 -3.082031 3.9375 -2.484375 4.4375 -1.953125 C 4.9375 -1.429688 5.539062 -1.171875 6.25 -1.171875 Z M 6.25 -1.171875 "/></g></g></g><g fill="#000000" fill-opacity="1"><g transform="translate(277.315498, 324.033208)"><g><path d="M 4.125 5.03125 L 1.890625 5.03125 L 1.890625 -8.203125 C 1.890625 -9.628906 1.648438 -10.722656 1.171875 -11.484375 L 3.21875 -11.734375 C 3.4375 -11.253906 3.582031 -10.726562 3.65625 -10.15625 C 4.539062 -11.269531 5.675781 -11.828125 7.0625 -11.828125 C 8.59375 -11.828125 9.773438 -11.226562 10.609375 -10.03125 C 11.453125 -8.84375 11.875 -7.445312 11.875 -5.84375 C 11.875 -4.132812 11.421875 -2.679688 10.515625 -1.484375 C 9.617188 -0.296875 8.34375 0.296875 6.6875 0.296875 C 5.488281 0.296875 4.523438 -0.0390625 3.796875 -0.71875 L 3.796875 3.65625 Z M 3.796875 -8.59375 L 3.796875 -4.6875 C 3.796875 -3.6875 4.023438 -2.867188 4.484375 -2.234375 C 4.953125 -1.597656 5.671875 -1.28125 6.640625 -1.28125 C 7.234375 -1.28125 7.742188 -1.410156 8.171875 -1.671875 C 8.597656 -1.941406 8.925781 -2.296875 9.15625 -2.734375 C 9.382812 -3.179688 9.550781 -3.648438 9.65625 -4.140625 C 9.769531 -4.640625 9.828125 -5.160156 9.828125 -5.703125 C 9.828125 -6.921875 9.554688 -7.960938 9.015625 -8.828125 C 8.472656 -9.703125 7.625 -10.140625 6.46875 -10.140625 C 5.5625 -10.140625 4.671875 -9.625 3.796875 -8.59375 Z M 3.796875 -8.59375 "/></g></g></g><g fill="#000000" fill-opacity="1"><g transform="translate(291.314934, 324.033208)"><g><path d="M 4.125 5.03125 L 1.890625 5.03125 L 1.890625 -8.203125 C 1.890625 -9.628906 1.648438 -10.722656 1.171875 -11.484375 L 3.21875 -11.734375 C 3.4375 -11.253906 3.582031 -10.726562 3.65625 -10.15625 C 4.539062 -11.269531 5.675781 -11.828125 7.0625 -11.828125 C 8.59375 -11.828125 9.773438 -11.226562 10.609375 -10.03125 C 11.453125 -8.84375 11.875 -7.445312 11.875 -5.84375 C 11.875 -4.132812 11.421875 -2.679688 10.515625 -1.484375 C 9.617188 -0.296875 8.34375 0.296875 6.6875 0.296875 C 5.488281 0.296875 4.523438 -0.0390625 3.796875 -0.71875 L 3.796875 3.65625 Z M 3.796875 -8.59375 L 3.796875 -4.6875 C 3.796875 -3.6875 4.023438 -2.867188 4.484375 -2.234375 C 4.953125 -1.597656 5.671875 -1.28125 6.640625 -1.28125 C 7.234375 -1.28125 7.742188 -1.410156 8.171875 -1.671875 C 8.597656 -1.941406 8.925781 -2.296875 9.15625 -2.734375 C 9.382812 -3.179688 9.550781 -3.648438 9.65625 -4.140625 C 9.769531 -4.640625 9.828125 -5.160156 9.828125 -5.703125 C 9.828125 -6.921875 9.554688 -7.960938 9.015625 -8.828125 C 8.472656 -9.703125 7.625 -10.140625 6.46875 -10.140625 C 5.5625 -10.140625 4.671875 -9.625 3.796875 -8.59375 Z M 3.796875 -8.59375 "/></g></g></g><g fill="#000000" fill-opacity="1"><g transform="translate(305.314371, 324.033208)"><g><path d="M 4.3125 -15.46875 C 4.3125 -15.0625 4.175781 -14.722656 3.90625 -14.453125 C 3.632812 -14.179688 3.296875 -14.046875 2.890625 -14.046875 C 2.503906 -14.046875 2.171875 -14.1875 1.890625 -14.46875 C 1.617188 -14.75 1.484375 -15.082031 1.484375 -15.46875 C 1.484375 -15.851562 1.617188 -16.1875 1.890625 -16.46875 C 2.171875 -16.75 2.503906 -16.890625 2.890625 -16.890625 C 3.273438 -16.890625 3.609375 -16.75 3.890625 -16.46875 C 4.171875 -16.1875 4.3125 -15.851562 4.3125 -15.46875 Z M 3.890625 0 L 1.953125 0 L 1.953125 -10.203125 C 1.953125 -10.222656 1.925781 -10.335938 1.875 -10.546875 C 1.832031 -10.753906 1.785156 -10.96875 1.734375 -11.1875 C 1.691406 -11.414062 1.671875 -11.546875 1.671875 -11.578125 L 3.890625 -11.578125 Z M 3.890625 0 "/></g></g></g><g fill="#000000" fill-opacity="1"><g transform="translate(312.209472, 324.033208)"><g><path d="M 10.8125 0 L 8.90625 0 L 8.90625 -7.109375 C 8.90625 -7.460938 8.894531 -7.753906 8.875 -7.984375 C 8.863281 -8.222656 8.820312 -8.488281 8.75 -8.78125 C 8.675781 -9.070312 8.570312 -9.304688 8.4375 -9.484375 C 8.3125 -9.671875 8.117188 -9.828125 7.859375 -9.953125 C 7.609375 -10.078125 7.300781 -10.140625 6.9375 -10.140625 C 5.914062 -10.140625 4.863281 -9.625 3.78125 -8.59375 L 3.78125 0 L 1.859375 0 L 1.859375 -8.203125 C 1.859375 -9.691406 1.601562 -10.785156 1.09375 -11.484375 L 3.21875 -11.765625 C 3.445312 -11.171875 3.59375 -10.617188 3.65625 -10.109375 C 4.820312 -11.273438 6.023438 -11.859375 7.265625 -11.859375 C 8.492188 -11.859375 9.390625 -11.488281 9.953125 -10.75 C 10.523438 -10.007812 10.8125 -9.003906 10.8125 -7.734375 Z M 10.8125 0 "/></g></g></g><g fill="#000000" fill-opacity="1"><g transform="translate(325.999267, 324.033208)"><g><path d="M 10.96875 -10.203125 L 8.484375 -10.203125 C 8.992188 -9.535156 9.25 -8.75 9.25 -7.84375 C 9.25 -6.726562 8.84375 -5.78125 8.03125 -5 C 7.226562 -4.21875 6.269531 -3.828125 5.15625 -3.828125 C 5.039062 -3.828125 4.882812 -3.835938 4.6875 -3.859375 C 4.5 -3.890625 4.359375 -3.90625 4.265625 -3.90625 C 4.046875 -3.90625 3.832031 -3.753906 3.625 -3.453125 C 3.425781 -3.148438 3.328125 -2.875 3.328125 -2.625 C 3.328125 -2.363281 3.410156 -2.160156 3.578125 -2.015625 C 3.742188 -1.878906 3.90625 -1.800781 4.0625 -1.78125 C 4.226562 -1.769531 4.457031 -1.765625 4.75 -1.765625 C 5 -1.765625 5.378906 -1.773438 5.890625 -1.796875 C 6.398438 -1.828125 6.773438 -1.84375 7.015625 -1.84375 C 9.429688 -1.84375 10.640625 -1.023438 10.640625 0.609375 C 10.640625 2.203125 10.050781 3.390625 8.875 4.171875 C 7.707031 4.960938 6.300781 5.359375 4.65625 5.359375 C 3.601562 5.359375 2.644531 5.113281 1.78125 4.625 C 0.914062 4.144531 0.484375 3.410156 0.484375 2.421875 C 0.484375 1.410156 1.082031 0.492188 2.28125 -0.328125 C 1.570312 -0.679688 1.21875 -1.25 1.21875 -2.03125 C 1.21875 -2.070312 1.304688 -2.234375 1.484375 -2.515625 C 2.128906 -3.390625 2.570312 -4.054688 2.8125 -4.515625 C 2.257812 -4.890625 1.820312 -5.367188 1.5 -5.953125 C 1.1875 -6.546875 1.03125 -7.171875 1.03125 -7.828125 C 1.03125 -8.941406 1.429688 -9.890625 2.234375 -10.671875 C 3.046875 -11.460938 4.007812 -11.859375 5.125 -11.859375 C 5.414062 -11.859375 5.84375 -11.800781 6.40625 -11.6875 C 6.976562 -11.582031 7.40625 -11.53125 7.6875 -11.53125 C 8.46875 -11.53125 9.703125 -11.644531 11.390625 -11.875 Z M 5.125 -5.21875 C 5.695312 -5.21875 6.1875 -5.46875 6.59375 -5.96875 C 7.007812 -6.476562 7.21875 -7.097656 7.21875 -7.828125 C 7.21875 -8.554688 7.007812 -9.175781 6.59375 -9.6875 C 6.1875 -10.195312 5.707031 -10.453125 5.15625 -10.453125 C 4.570312 -10.453125 4.070312 -10.203125 3.65625 -9.703125 C 3.25 -9.203125 3.046875 -8.582031 3.046875 -7.84375 C 3.046875 -7.113281 3.25 -6.492188 3.65625 -5.984375 C 4.070312 -5.472656 4.5625 -5.21875 5.125 -5.21875 Z M 3.6875 0.0625 C 3.351562 0.300781 3.070312 0.601562 2.84375 0.96875 C 2.613281 1.332031 2.5 1.6875 2.5 2.03125 C 2.5 2.550781 2.769531 2.972656 3.3125 3.296875 C 3.851562 3.617188 4.421875 3.78125 5.015625 3.78125 C 6.003906 3.78125 6.890625 3.578125 7.671875 3.171875 C 8.460938 2.765625 8.859375 2.132812 8.859375 1.28125 C 8.859375 1 8.785156 0.765625 8.640625 0.578125 C 8.503906 0.390625 8.300781 0.253906 8.03125 0.171875 C 7.769531 0.0976562 7.523438 0.0507812 7.296875 0.03125 C 7.078125 0.0078125 6.800781 0 6.46875 0 C 5.539062 0 4.613281 0.0195312 3.6875 0.0625 Z M 3.6875 0.0625 "/></g></g></g><g fill="#000000" fill-opacity="1"><g transform="translate(338.181839, 324.033208)"><g><path d="M 0.984375 -1.296875 C 0.984375 -1.734375 1.128906 -2.097656 1.421875 -2.390625 C 1.710938 -2.691406 2.078125 -2.84375 2.515625 -2.84375 C 2.929688 -2.84375 3.289062 -2.691406 3.59375 -2.390625 C 3.894531 -2.085938 4.046875 -1.722656 4.046875 -1.296875 C 4.046875 -0.878906 3.894531 -0.519531 3.59375 -0.21875 C 3.289062 0.0820312 2.929688 0.234375 2.515625 0.234375 C 2.097656 0.234375 1.738281 0.0820312 1.4375 -0.21875 C 1.132812 -0.519531 0.984375 -0.878906 0.984375 -1.296875 Z M 0.984375 -1.296875 "/></g></g></g></svg>